<svg width="96" height="77" viewBox="0 0 96 77" fill="none" xmlns="http://www.w3.org/2000/svg">
<g clip-path="url(#clip0_1592_7834)">
<path d="M8.01086e-05 77L60.6775 77L60.6775 47.599L8.01086e-05 47.599L8.01086e-05 77Z" fill="#263238"/>
<path d="M53.8125 36.3604H7.97461V69.4106H53.8125V36.3604Z" fill="#FFC727"/>
<path d="M37.6167 32.9375H53.8124V36.3602H36.686L37.6167 32.9375Z" fill="#FFC727"/>
<g opacity="0.4">
<path d="M53.8125 36.3604H7.97461V69.4106H53.8125V36.3604Z" fill="black"/>
<path d="M37.6167 32.9375H53.8124V36.3602H36.686L37.6167 32.9375Z" fill="black"/>
</g>
<path d="M38.9766 36.2666H52.2224V34.275H38.9766V36.2666Z" fill="white"/>
<path d="M7.97461 69.4101H53.8126L54.1455 38.4092H8.30758L7.97461 69.4101Z" fill="#FFC727"/>
<path d="M37.9841 35.2705H54.18L54.1456 38.4094H37.019L37.9841 35.2705Z" fill="#FFC727"/>
<g opacity="0.2">
<path d="M7.97461 69.4101H53.8126L54.1455 38.4092H8.30758L7.97461 69.4101Z" fill="black"/>
<path d="M37.9841 35.2705H54.18L54.1456 38.4094H37.019L37.9841 35.2705Z" fill="black"/>
</g>
<g opacity="0.3">
<path d="M7.97461 69.4101H53.8126L54.1455 38.4092H8.30758L7.97461 69.4101Z" fill="white"/>
<path d="M37.9841 35.2705H54.18L54.1456 38.4094H37.019L37.9841 35.2705Z" fill="white"/>
</g>
<path d="M57.7704 34.1689H11.9326V67.2193H57.7704V34.1689Z" fill="#FFC727"/>
<path d="M41.5747 30.7461H57.7706V34.1688H40.6443L41.5747 30.7461Z" fill="#FFC727"/>
<g opacity="0.4">
<path d="M57.7704 34.1689H11.9326V67.2193H57.7704V34.1689Z" fill="white"/>
<path d="M41.5745 30.7461H57.7704V34.1688H40.644L41.5745 30.7461Z" fill="white"/>
</g>
<path d="M42.9346 34.0752H56.1804V32.0836H42.9346V34.0752Z" fill="white"/>
<path d="M11.9326 67.2187H57.7708L58.1035 36.2178H12.2656L11.9326 67.2187Z" fill="#FFC727"/>
<path d="M41.9422 33.0791H58.1381L58.1037 36.218H40.9773L41.9422 33.0791Z" fill="#FFC727"/>
<g opacity="0.6">
<path d="M11.9326 67.2187H57.7708L58.1035 36.2178H12.2656L11.9326 67.2187Z" fill="white"/>
<path d="M41.9422 33.0791H58.1381L58.1037 36.218H40.9773L41.9422 33.0791Z" fill="white"/>
</g>
<path d="M66.5581 19.0361H20.7202V52.0865H66.5581V19.0361Z" fill="#FFC727"/>
<path d="M50.3623 15.6133H66.558V19.036H49.4316L50.3623 15.6133Z" fill="#FFC727"/>
<g opacity="0.2">
<path d="M66.5581 19.0361H20.7202V52.0865H66.5581V19.0361Z" fill="black"/>
<path d="M50.3623 15.6133H66.558V19.036H49.4316L50.3623 15.6133Z" fill="black"/>
</g>
<path d="M51.7168 18.6387H64.9626V16.6471H51.7168V18.6387Z" fill="white"/>
<path d="M54.3241 48.0302L23.6287 48.0298L23.6289 8.83594L46.4203 8.83614L54.3243 16.3045L54.3241 48.0302Z" fill="#FFC727"/>
<path opacity="0.6" d="M54.3241 48.0302L23.6287 48.0298L23.6289 8.83594L46.4203 8.83614L54.3243 16.3045L54.3241 48.0302Z" fill="white"/>
<path d="M46.4204 8.83594L54.3243 16.3043L46.4202 16.3041L46.4204 8.83594Z" fill="#FFC727"/>
<path opacity="0.4" d="M46.4204 8.83594L54.3243 16.3043L46.4202 16.3041L46.4204 8.83594Z" fill="white"/>
<path d="M26.6236 16.4188L43.6899 16.4189L43.6899 15.4125L26.6236 15.4123L26.6236 16.4188Z" fill="white"/>
<path d="M26.6236 18.9588L43.6899 18.959L43.69 17.9525L26.6236 17.9523L26.6236 18.9588Z" fill="white"/>
<path d="M26.6236 21.4989L43.6899 21.499L43.6899 20.4925L26.6236 20.4924L26.6236 21.4989Z" fill="white"/>
<path d="M26.6235 24.0398L51.6287 24.04L51.6287 23.0336L26.6235 23.0333L26.6235 24.0398Z" fill="white"/>
<path d="M26.6235 26.5799L51.6287 26.5801L51.6287 25.5736L26.6235 25.5733L26.6235 26.5799Z" fill="white"/>
<path d="M26.6235 29.1199L51.6287 29.1201L51.6287 28.1137L26.6235 28.1135L26.6235 29.1199Z" fill="white"/>
<path d="M26.6235 31.66L51.6287 31.6602L51.6287 30.6536L26.6235 30.6534L26.6235 31.66Z" fill="white"/>
<path d="M26.6235 34.2009L51.6287 34.2012L51.6287 33.1947L26.6235 33.1945L26.6235 34.2009Z" fill="white"/>
<path d="M26.6233 36.741L51.6284 36.7412L51.6284 35.7347L26.6233 35.7345L26.6233 36.741Z" fill="white"/>
<path d="M26.6235 39.281L51.6287 39.2812L51.6287 38.2748L26.6235 38.2745L26.6235 39.281Z" fill="white"/>
<path d="M26.6233 41.8211L51.6284 41.8213L51.6284 40.8148L26.6233 40.8146L26.6233 41.8211Z" fill="white"/>
<path d="M26.6233 44.3621L51.6284 44.3623L51.6284 43.3558L26.6233 43.3556L26.6233 44.3621Z" fill="white"/>
<path d="M69.5963 42.2121L39.0559 38.9907L43.2125 0L66.2386 2.42872L72.9563 10.6957L69.5963 42.2121Z" fill="#455A64"/>
<path d="M72.9562 10.6957L65.4417 9.90306L66.2385 2.42871L72.9562 10.6957Z" fill="#37474F"/>
<path d="M20.8406 52.0864H66.6785L70.2141 21.7783H24.3761L20.8406 52.0864Z" fill="#FFC727"/>
<path d="M54.3842 18.6387H70.58L70.214 21.7776H53.0874L54.3842 18.6387Z" fill="#FFC727"/>
<path d="M82.51 30.2324H36.6721V63.2827H82.51V30.2324Z" fill="#FFC727"/>
<path d="M66.3139 26.8096H82.5099V30.2323H65.3833L66.3139 26.8096Z" fill="#FFC727"/>
<g opacity="0.4">
<path d="M82.51 30.2324H36.6721V63.2827H82.51V30.2324Z" fill="black"/>
<path d="M66.3142 26.8096H82.5101V30.2323H65.3835L66.3142 26.8096Z" fill="black"/>
</g>
<path d="M67.6741 30.1387H80.9199V28.147H67.6741V30.1387Z" fill="white"/>
<path d="M36.6721 63.2822H82.5103L82.843 32.2812H37.0051L36.6721 63.2822Z" fill="#FFC727"/>
<path d="M66.6816 29.1426H82.8774L82.8429 32.2815H65.7166L66.6816 29.1426Z" fill="#FFC727"/>
<g opacity="0.2">
<path d="M36.6721 63.2822H82.5103L82.843 32.2812H37.0051L36.6721 63.2822Z" fill="black"/>
<path d="M66.6819 29.1426H82.8776L82.8432 32.2815H65.7168L66.6819 29.1426Z" fill="black"/>
</g>
<g opacity="0.3">
<path d="M36.6721 63.2822H82.5103L82.843 32.2812H37.0051L36.6721 63.2822Z" fill="white"/>
<path d="M66.6819 29.1426H82.8776L82.8432 32.2815H65.7168L66.6819 29.1426Z" fill="white"/>
</g>
<path d="M89.767 34.1689H43.9292V67.2193H89.767V34.1689Z" fill="#FFC727"/>
<path d="M73.5711 30.7461H89.767V34.1688H72.6406L73.5711 30.7461Z" fill="#FFC727"/>
<g opacity="0.4">
<path d="M89.767 34.1689H43.9292V67.2193H89.767V34.1689Z" fill="white"/>
<path d="M73.5711 30.7461H89.767V34.1688H72.6406L73.5711 30.7461Z" fill="white"/>
</g>
<path d="M74.931 34.0752H88.1768V32.0836H74.931V34.0752Z" fill="white"/>
<path d="M43.929 67.2187H89.7671L90.0999 36.2178H44.2619L43.929 67.2187Z" fill="#FFC727"/>
<path d="M73.9385 33.0791H90.1344L90.1 36.218H72.9736L73.9385 33.0791Z" fill="#FFC727"/>
<g opacity="0.6">
<path d="M43.929 67.2187H89.7671L90.0999 36.2178H44.2619L43.929 67.2187Z" fill="white"/>
<path d="M73.9385 33.0791H90.1344L90.1 36.218H72.9736L73.9385 33.0791Z" fill="white"/>
</g>
<path d="M36.5231 73.9775L95.9998 73.9775V44.5766L36.5231 44.5766L36.5231 73.9775Z" fill="#FFC727"/>
<path opacity="0.5" d="M36.5231 73.9775L95.9998 73.9775V44.5766L36.5231 44.5766L36.5231 73.9775Z" fill="black"/>
<g opacity="0.1">
<path d="M67.0738 44.5762L37.5151 73.9777H36.522V63.1635L55.2087 44.5762H67.0738Z" fill="#FFC727"/>
<path d="M95.9999 62.6318V70.4507L92.454 73.9778H84.5933L95.9999 62.6318Z" fill="#FFC727"/>
<path d="M50.5475 44.5762L36.522 58.5271V56.7148L48.7255 44.5762H50.5475Z" fill="#FFC727"/>
<path d="M95.9998 47.6611V49.4735L71.3665 73.9777H69.5425L95.9998 47.6611Z" fill="#FFC727"/>
</g>
<path d="M36.523 44.5762H34.9492V73.9771H36.523V44.5762Z" fill="#FFC727"/>
<path opacity="0.6" d="M36.523 44.5762H34.9492V73.9771H36.523V44.5762Z" fill="black"/>
<g opacity="0.4">
<path d="M59.8375 58.9893H77.1262V53.1356H59.8375V58.9893Z" fill="black"/>
<path d="M74.1744 58.6221H56.7363V53.5029H74.1744V58.6221ZM56.8855 58.4737H74.0252V53.6514H56.8855L56.8855 58.4737Z" fill="black"/>
</g>
<path d="M3.30794 73.9775H34.9492V48.9826H3.30794L3.30794 73.9775Z" fill="#FFC727"/>
<path opacity="0.7" d="M3.30794 73.9775H34.9492V48.9826H3.30794L3.30794 73.9775Z" fill="black"/>
<path d="M62.2302 50.7783H70.2925V47.3956H62.2302V50.7783Z" fill="white"/>
<path d="M70.2925 48.3115H62.2302" stroke="#FFC727" stroke-width="0.5" stroke-miterlimit="10"/>
<path d="M70.2925 49.8633H62.2302" stroke="#FFC727" stroke-width="0.5" stroke-miterlimit="10"/>
</g>
<defs>
<clipPath id="clip0_1592_7834">
<rect width="96" height="77" fill="white"/>
</clipPath>
</defs>
</svg>
