<svg width="93" height="102" viewBox="0 0 93 102" fill="none" xmlns="http://www.w3.org/2000/svg">
<path d="M0.0153291 19.1631H2.0118V19.8833H0.0153437C0.0112743 19.8833 0.00737157 19.8817 0.00449407 19.8788C0.00161656 19.8759 0 19.872 0 19.868L0 19.1784C0 19.1743 0.00161503 19.1704 0.0044898 19.1676C0.00736457 19.1647 0.0112636 19.1631 0.0153291 19.1631Z" fill="#B22B49"/>
<path d="M0.80781 20.5684H2.8043V21.2886H0.807824C0.803755 21.2886 0.799852 21.287 0.796975 21.2841C0.794097 21.2812 0.79248 21.2773 0.79248 21.2732V20.5837C0.79248 20.5796 0.794095 20.5757 0.79697 20.5728C0.799845 20.57 0.803744 20.5684 0.80781 20.5684Z" fill="#6488AD"/>
<path d="M1.31564 21.9092H3.3121V22.6294H1.31564C1.31157 22.6294 1.30766 22.6278 1.30479 22.6249C1.30191 22.622 1.30029 22.6181 1.30029 22.6141V21.9245C1.30029 21.9205 1.30191 21.9166 1.30479 21.9137C1.30766 21.9108 1.31157 21.9092 1.31564 21.9092Z" fill="#A9C2A9"/>
<path d="M61.2566 102L71.6301 93.8509C72.1788 93.4199 71.8821 92.5195 71.1914 92.5195H11.3246L3.2832 102H61.2566Z" fill="#907B67"/>
<path d="M58.8394 90.0987V100.69L68.7536 93.7381L68.4177 86.3887L58.8394 90.0987Z" fill="#E3E4E3"/>
<path d="M61.2566 89.2885L69.7449 85.8411C70.2349 85.642 70.0987 84.8945 69.5717 84.8911L13.7022 84.5312L3.2832 88.7923L61.2566 89.2885Z" fill="#907B67"/>
<path d="M61.2566 88.793H3.2832V102H61.2566V88.793Z" fill="#9A8473"/>
<path opacity="0.08" d="M61.2578 89.289L68.4538 86.3887L68.4775 86.9103L61.2554 91.4834L61.2578 89.289Z" fill="#000100"/>
<path d="M45.4047 91.4844H6.50977V99.626H45.4047V91.4844Z" fill="#F0F0F0"/>
<path d="M52.8418 98.4898C54.4579 98.4898 55.7681 97.1439 55.7681 95.4837C55.7681 93.8234 54.4579 92.4775 52.8418 92.4775C51.2257 92.4775 49.9155 93.8234 49.9155 95.4837C49.9155 97.1439 51.2257 98.4898 52.8418 98.4898Z" fill="#303030"/>
<path d="M52.8408 98.6301C51.1515 98.6301 49.7773 97.2184 49.7773 95.483C49.7773 93.7477 51.1515 92.3359 52.8408 92.3359C54.53 92.3359 55.9042 93.7477 55.9042 95.483C55.9042 97.2184 54.53 98.6301 52.8408 98.6301ZM52.8408 92.6178C51.3028 92.6178 50.0517 93.9031 50.0517 95.483C50.0517 97.063 51.3028 98.3482 52.8408 98.3482C54.3788 98.3482 55.6299 97.063 55.6299 95.483C55.6299 93.9031 54.3788 92.6178 52.8408 92.6178Z" fill="#BDC6AA"/>
<path d="M52.9711 0L68.5941 9.22662C69.4082 9.75341 68.8891 10.7157 68.0123 10.7157L8.87417 9.44091L3.84766 2.76313L52.9711 0Z" fill="#507798"/>
<path d="M52.4587 13.1208L51.9482 0.404297L64.954 8.09057L64.4887 17.3525L52.4587 13.1208Z" fill="#E4E4E2"/>
<path d="M52.8901 12.4072L66.395 17.6496C67.1 17.9241 66.9066 18.823 66.1512 18.7876L10.5255 16.1847L3.66602 12.4072H52.8901Z" fill="#507798"/>
<path d="M52.9706 0L3.63428 2.77178L3.66619 12.407H52.8902L52.9706 0Z" fill="#6488AD"/>
<path d="M5.70056 11.2798L5.67725 4.22785L37.0482 2.20898L37.0776 11.1184L5.70056 11.2798Z" fill="white"/>
<path d="M62.4842 73.9512H4.80469V87.3787H62.4842V73.9512Z" fill="#C9C9C9"/>
<path d="M61.1091 64.4971H3.42969V73.9808H61.1091V64.4971Z" fill="#A9C2A9"/>
<path d="M63.322 53.2197H5.64258V64.5211H63.322V53.2197Z" fill="#6488AD"/>
<path d="M59.6907 40.4912H2.01123V53.9471H59.6907V40.4912Z" fill="#B22B49"/>
<path d="M60.991 26.9492H3.31152V40.4051H60.991V26.9492Z" fill="#F7DE8D"/>
<path d="M62.2927 22.2695H4.61328V26.898H62.2927V22.2695Z" fill="#E8CBAD"/>
<path d="M59.6907 18.6143H2.01123V23.2427H59.6907V18.6143Z" fill="#E8CBAD"/>
<path d="M61.4207 16.2908H3.74121C3.9284 15.5307 3.9284 14.7366 3.74121 13.9766L61.4207 15.1337V16.2908Z" fill="#E3E4E3"/>
<path d="M62.4842 18.6033H4.80469C5.05596 17.8523 5.05596 17.04 4.80469 16.2891H62.4842V18.6033Z" fill="#DADADB"/>
<path d="M41.9304 42.5664H6.12012V51.8708H41.9304V42.5664Z" fill="#F0F0F0"/>
<path d="M54.0286 61.1278C55.5913 61.1278 56.858 59.8264 56.858 58.2211C56.858 56.6158 55.5913 55.3145 54.0286 55.3145C52.466 55.3145 51.1992 56.6158 51.1992 58.2211C51.1992 59.8264 52.466 61.1278 54.0286 61.1278Z" fill="#373736"/>
<path d="M54.0296 61.2691C52.3938 61.2691 51.063 59.902 51.063 58.2215C51.063 56.5409 52.3938 55.1738 54.0296 55.1738C55.6655 55.1738 56.9963 56.5409 56.9963 58.2215C56.9963 59.902 55.6655 61.2691 54.0296 61.2691ZM54.0296 55.4557C53.4794 55.4408 52.9373 55.5904 52.4726 55.8854C52.0079 56.1803 51.6417 56.6071 51.4208 57.1112C51.2 57.6154 51.1345 58.1739 51.2328 58.7155C51.3311 59.257 51.5886 59.757 51.9725 60.1514C52.3564 60.5457 52.8493 60.8167 53.388 60.9295C53.9267 61.0423 54.4868 60.9919 54.9967 60.7847C55.5066 60.5775 55.9431 60.2229 56.2504 59.7663C56.5578 59.3097 56.7219 58.7718 56.7219 58.2215C56.7307 57.4979 56.4522 56.8005 55.9475 56.282C55.4428 55.7635 54.7531 55.4663 54.0296 55.4557Z" fill="#BEAE97"/>
<path d="M52.8431 50.2401C54.4057 50.2401 55.6725 48.9387 55.6725 47.3334C55.6725 45.7281 54.4057 44.4268 52.8431 44.4268C51.2804 44.4268 50.0137 45.7281 50.0137 47.3334C50.0137 48.9387 51.2804 50.2401 52.8431 50.2401Z" fill="#373736"/>
<path d="M52.8421 50.3814C51.2063 50.3814 49.8755 49.0143 49.8755 47.3338C49.8755 45.6533 51.2063 44.2861 52.8421 44.2861C54.478 44.2861 55.8088 45.6533 55.8088 47.3338C55.8088 49.0143 54.478 50.3814 52.8421 50.3814ZM52.8421 44.568C52.2919 44.5531 51.7498 44.7028 51.2851 44.9977C50.8204 45.2926 50.4542 45.7194 50.2333 46.2235C50.0125 46.7277 49.947 47.2862 50.0453 47.8278C50.1436 48.3693 50.4011 48.8693 50.785 49.2637C51.1689 49.658 51.6618 49.929 52.2005 50.0418C52.7392 50.1546 53.2993 50.1042 53.8092 49.897C54.3191 49.6898 54.7556 49.3352 55.0629 48.8786C55.3703 48.422 55.5344 47.8842 55.5344 47.3338C55.5432 46.6102 55.2647 45.9128 54.76 45.3943C54.2553 44.8758 53.5656 44.5786 52.8421 44.568Z" fill="#BEAE97"/>
<path d="M52.4705 38.0243C54.0332 38.0243 55.3 36.7229 55.3 35.1176C55.3 33.5123 54.0332 32.2109 52.4705 32.2109C50.9079 32.2109 49.6411 33.5123 49.6411 35.1176C49.6411 36.7229 50.9079 38.0243 52.4705 38.0243Z" fill="#373736"/>
<path d="M52.471 38.1656C50.8352 38.1656 49.5044 36.7984 49.5044 35.1179C49.5044 33.4374 50.8352 32.0703 52.471 32.0703C54.1069 32.0703 55.4377 33.4374 55.4377 35.1179C55.4377 36.7984 54.1069 38.1656 52.471 38.1656ZM52.471 32.3522C51.9208 32.3373 51.3787 32.4869 50.914 32.7819C50.4493 33.0768 50.0831 33.5036 49.8622 34.0077C49.6414 34.5119 49.5759 35.0704 49.6742 35.612C49.7725 36.1535 50.03 36.6535 50.4139 37.0478C50.7979 37.4422 51.2907 37.7132 51.8294 37.826C52.3681 37.9388 52.9282 37.8884 53.4381 37.6812C53.948 37.474 54.3845 37.1194 54.6918 36.6628C54.9992 36.2062 55.1633 35.6683 55.1633 35.1179C55.1721 34.3944 54.8936 33.697 54.3889 33.1785C53.8842 32.66 53.1945 32.3628 52.471 32.3522Z" fill="#BEAE97"/>
<path d="M53.7542 84.0243C55.3169 84.0243 56.5836 82.7229 56.5836 81.1176C56.5836 79.5123 55.3169 78.2109 53.7542 78.2109C52.1916 78.2109 50.9248 79.5123 50.9248 81.1176C50.9248 82.7229 52.1916 84.0243 53.7542 84.0243Z" fill="#373736"/>
<path d="M53.7547 84.1646C52.1189 84.1646 50.7881 82.7975 50.7881 81.1169C50.7881 79.4365 52.1189 78.0693 53.7547 78.0693C55.3906 78.0693 56.7214 79.4365 56.7214 81.1169C56.7214 82.7975 55.3906 84.1646 53.7547 84.1646ZM53.7547 78.3512C53.2045 78.3363 52.6624 78.486 52.1977 78.7809C51.733 79.0758 51.3668 79.5026 51.1459 80.0067C50.9251 80.5109 50.8596 81.0694 50.9579 81.611C51.0562 82.1525 51.3137 82.6525 51.6976 83.0469C52.0815 83.4412 52.5744 83.7122 53.1131 83.825C53.6518 83.9378 54.2119 83.8874 54.7218 83.6802C55.2317 83.473 55.6682 83.1184 55.9755 82.6618C56.2829 82.2052 56.447 81.6673 56.447 81.1169C56.4558 80.3934 56.1773 79.696 55.6726 79.1775C55.1679 78.659 54.4782 78.3618 53.7547 78.3512Z" fill="#BEAE97"/>
<path d="M44.8983 9.1102C46.4609 9.1102 47.7277 7.80884 47.7277 6.20354C47.7277 4.59823 46.4609 3.29688 44.8983 3.29688C43.3356 3.29688 42.0688 4.59823 42.0688 6.20354C42.0688 7.80884 43.3356 9.1102 44.8983 9.1102Z" fill="#373736"/>
<path d="M44.8973 9.25149C43.2615 9.25149 41.9307 7.88437 41.9307 6.20388C41.9307 4.52337 43.2615 3.15625 44.8973 3.15625C46.5332 3.15625 47.8639 4.52337 47.8639 6.20388C47.8639 7.88437 46.5332 9.25149 44.8973 9.25149ZM44.8973 3.43808C44.1738 3.44876 43.4841 3.74592 42.9794 4.26441C42.4747 4.78289 42.1962 5.48036 42.205 6.20388C42.1953 6.56353 42.2578 6.92149 42.3887 7.2566C42.5197 7.59172 42.7164 7.8972 42.9674 8.15501C43.2184 8.41282 43.5184 8.61773 43.8499 8.75765C44.1814 8.89757 44.5375 8.96966 44.8973 8.96966C45.2571 8.96966 45.6132 8.89757 45.9447 8.75765C46.2762 8.61773 46.5762 8.41282 46.8272 8.15501C47.0782 7.8972 47.2749 7.59172 47.4059 7.2566C47.5368 6.92149 47.5993 6.56353 47.5896 6.20388C47.5984 5.48036 47.3199 4.78289 46.8152 4.26441C46.3105 3.74592 45.6208 3.44876 44.8973 3.43808Z" fill="#BEAE97"/>
<path d="M45.938 34.6868C45.938 34.6868 64.3612 45.4692 76.6222 27.0078L92.0621 36.8171C92.0621 36.8171 68.8841 46.525 67.1086 45.9128C53.9805 41.3869 45.938 34.6868 45.938 34.6868Z" fill="#F0F0F0"/>
<path d="M52.9707 8.17163C52.9707 8.17163 56.3681 9.72677 65.613 5.00781L75.514 8.87854C75.514 8.87854 65.3454 14.5559 64.3878 14.2258C57.308 11.785 52.9707 8.17163 52.9707 8.17163Z" fill="#F0F0F0"/>
<g style="mix-blend-mode:multiply" opacity="0.07">
<path d="M61.9649 67.3349C56.2884 61.3951 55.7759 53.2197 55.7759 53.2197C55.7759 53.2197 54.8076 62.9784 58.1002 75.6162C58.2319 76.1215 60.0085 77.6332 62.4456 79.5119C62.3925 75.449 62.1792 71.392 61.9649 67.3349Z" fill="#000100"/>
</g>
<path d="M57.3208 49.7061C57.3208 49.7061 58.5734 69.7163 78.8949 69.8701L79.3571 87.0369C79.3571 87.0369 60.0905 73.8117 59.6452 72.1025C56.3525 59.4647 57.3208 49.7061 57.3208 49.7061Z" fill="#F0F0F0"/>
<path d="M11.4965 14.2269C10.2244 13.9655 8.94357 13.7504 7.65926 13.563C6.44358 13.3856 5.19815 13.3071 3.99128 13.0788L6.19786 13.4961C5.00143 13.2472 3.80496 12.9985 2.60844 12.75C3.14289 13.1262 3.73558 13.412 4.36277 13.5959C4.37049 13.598 4.36752 13.6091 4.35953 13.6086L2.58258 13.4951C2.58102 13.4951 2.57952 13.4957 2.57831 13.4967C2.5771 13.4976 2.57625 13.499 2.57588 13.5005C2.57552 13.502 2.57566 13.5036 2.57629 13.5051C2.57691 13.5065 2.57799 13.5077 2.57935 13.5084C3.98219 14.2909 4.96438 14.2403 4.96438 14.2403C4.96438 14.2403 11.0116 14.1247 11.0131 14.1248L11.4965 14.2269Z" fill="#E3E4E3"/>
<path d="M59.3277 12.8061L66.8327 15.5977V15.8748L52.7441 11.2793L59.3277 12.8061Z" fill="#F0F0F0"/>
<g style="mix-blend-mode:multiply" opacity="0.2">
<path d="M22.0698 18.6045C22.0698 18.6045 48.419 31.3645 49.3596 36.0802L56.7217 29.9335C56.7217 29.9335 33.1653 18.6984 22.0698 18.6045Z" fill="#000100"/>
</g>
<path d="M57.72 34.0162C51.3161 28.9616 44.0456 25.1149 36.264 22.6643L22.0698 18.6045H74.8135L57.72 34.0162Z" fill="#E3E4E3"/>
<path d="M7.03613 30.1719V32.3603C7.44977 32.4936 7.81045 32.7548 8.0663 33.1061C8.32214 33.4574 8.45998 33.8809 8.45998 34.3155C8.45998 34.7501 8.32214 35.1735 8.0663 35.5248C7.81045 35.8762 7.44977 36.1373 7.03613 36.2707V38.6687H18.6067V30.1719H7.03613Z" fill="#F6F1E3"/>
<path d="M8.50439 66.1201V67.727C9.32714 67.9097 9.92824 68.4828 9.92824 69.1626C9.92824 69.8424 9.32714 70.4155 8.50439 70.5982V72.359H20.075V66.1201H8.50439Z" fill="#F0F0F0"/>
<path d="M16.0473 30.8438H15.77V37.9521H16.0473V30.8438Z" fill="#9A8473"/>
<path d="M17.9222 30.8438H16.6206V37.9521H17.9222V30.8438Z" fill="#E8CBAD"/>
<path d="M42.776 77.3447H9.48975V84.0326H42.776V77.3447Z" fill="#F0F0F0"/>
<path d="M42.776 54.877H9.48975V61.5649H42.776V54.877Z" fill="#F0F0F0"/>
<g opacity="0.16">
<path d="M12.8652 67.5439H12.0825V71.5521H12.8652V67.5439Z" fill="#6488AD"/>
<path d="M14.6816 67.5439H13.8989V71.5521H14.6816V67.5439Z" fill="#6488AD"/>
<path d="M17.0127 67.5439H16.23V71.5521H17.0127V67.5439Z" fill="#6488AD"/>
</g>
<path d="M55.768 66.7285H54.5122V72.3584H55.768V66.7285Z" fill="#F7DE8D"/>
</svg>
