<svg width="16" height="19" viewBox="0 0 16 19" fill="none" xmlns="http://www.w3.org/2000/svg">
<path d="M1 7.8C1 5.181 1 3.872 1.59 2.91C1.91973 2.37205 2.37205 1.91973 2.91 1.59C3.872 1 5.181 1 7.8 1H8.2C10.819 1 12.128 1 13.09 1.59C13.628 1.91973 14.0803 2.37205 14.41 2.91C15 3.872 15 5.181 15 7.8V11C15 11.929 15 12.393 14.949 12.783C14.7767 14.0927 14.177 15.3089 13.2429 16.2429C12.3089 17.177 11.0927 17.7767 9.783 17.949C9.393 18 8.93 18 8 18C7.071 18 6.607 18 6.217 17.949C4.90733 17.7767 3.69114 17.177 2.75709 16.2429C1.82303 15.3089 1.22332 14.0927 1.051 12.783C1 12.393 1 11.93 1 11V7.8Z" stroke="white" stroke-width="2" stroke-linejoin="round"/>
<path d="M8 1V6" stroke="white" stroke-width="2" stroke-linecap="round" stroke-linejoin="round"/>
</svg>
